<svg width="368" height="84" viewBox="0 0 368 84" fill="none" xmlns="http://www.w3.org/2000/svg">
<path fill-rule="evenodd" clip-rule="evenodd" d="M131.995 24.6928V31.2952H138.508V36.6128H131.995V44.0571C131.995 45.2683 132.393 46.1397 133.191 46.6715C133.989 47.2033 134.875 47.4394 135.85 47.3804C136.825 47.3212 137.829 47.0998 138.863 46.7157L139.483 52.3433C137.563 52.8751 135.746 53.1557 134.033 53.1852C132.32 53.2147 130.739 52.9709 129.292 52.4542C127.844 51.9371 126.7 50.977 125.858 49.5739C125.015 48.1707 124.595 46.3909 124.595 44.2343V36.6128L120.828 36.1252V31.2952H124.595L125.437 24.6928H131.995ZM164.962 52.6534H157.341V40.4234C157.37 39.2714 157.097 38.3705 156.521 37.7205C155.945 37.0706 155.229 36.7457 154.372 36.7457C153.427 36.7457 152.585 37.0853 151.846 37.7648C151.108 38.4442 150.738 39.3748 150.738 40.5563V52.6534H143.161V20.3062H150.738V34.0426C151.241 33.0088 152.038 32.2111 153.131 31.6499C154.224 31.0886 155.391 30.808 156.632 30.808C162.186 30.808 164.962 34.0131 164.962 40.4234V52.6534ZM180.162 30.7192C184.15 30.7785 186.963 32.0042 188.603 34.3972C190.242 36.7899 190.575 39.9066 189.6 43.7467H176.351C176.646 46.0215 178.419 47.1588 181.668 47.1588C182.909 47.1588 184.231 47.0185 185.634 46.7378C187.037 46.4572 188.123 46.1397 188.891 45.7851L189.733 51.2356C186.926 52.5352 184.076 53.2 181.181 53.2294C177.518 53.2294 174.541 52.2251 172.252 50.2162C169.962 48.2076 168.818 45.4308 168.818 41.8858C168.818 39.4338 169.394 37.3364 170.546 35.5934C171.698 33.8507 173.109 32.6026 174.778 31.8491C176.447 31.096 178.241 30.7192 180.162 30.7192ZM176.395 39.2271H183.308C183.396 38.3408 183.108 37.6613 182.443 37.1888C181.779 36.7162 181.003 36.4798 180.117 36.4798C179.26 36.4798 178.47 36.7236 177.746 37.2109C177.023 37.6984 176.572 38.3705 176.395 39.2271ZM201.077 33.9984V34.1755C201.667 33.053 202.517 32.1816 203.624 31.5611C204.732 30.9409 205.936 30.6305 207.236 30.6305C210.249 30.6898 212.598 31.7828 214.281 33.9096C215.965 36.0368 216.807 38.6659 216.807 41.797C216.807 44.3967 216.12 46.6936 214.747 48.6875C213.373 50.6817 211.63 51.9961 209.518 52.6313C207.406 53.2663 205.079 53.126 202.539 52.2104V63.5983H195.006V37.8535C195.006 37.2627 194.999 36.8786 194.984 36.7012C194.969 36.524 194.91 36.2876 194.806 35.9923C194.703 35.6969 194.526 35.5123 194.275 35.4384C194.024 35.3647 193.677 35.3275 193.233 35.3275V31.2068C194.031 31.0294 194.821 30.9038 195.604 30.8301C196.387 30.7561 197.222 30.7635 198.108 30.8522C198.994 30.9409 199.71 31.251 200.257 31.7828C200.803 32.3146 201.077 33.053 201.077 33.9984ZM202.362 41.0439V45.7851C204.193 46.6417 205.796 46.701 207.169 45.9626C208.543 45.2238 209.23 43.8354 209.23 41.797C209.23 40.5563 208.912 39.4783 208.277 38.5624C207.642 37.6466 206.749 37.2182 205.596 37.2775C204.621 37.2775 203.839 37.6539 203.248 38.4074C202.657 39.1605 202.362 40.0396 202.362 41.0439ZM242.154 32.1371L233.291 55.0462C232.523 56.9958 231.718 58.5838 230.876 59.8098C230.034 61.0358 229.067 61.9738 227.974 62.6235C226.881 63.2734 225.633 63.5541 224.229 63.4654C222.826 63.3769 221.224 62.9188 219.422 62.0917L220.086 57.2617C221.681 57.971 222.974 58.1113 223.964 57.6827C224.953 57.2544 225.743 56.1687 226.334 54.426L226.91 52.6534L217.826 32.1371V31.2952H225.891L230.455 43.8354H230.632L234.665 31.2952H242.154V32.1371ZM267.145 32.1371L258.283 55.0462C257.515 56.9958 256.71 58.5838 255.868 59.8098C255.026 61.0358 254.058 61.9738 252.965 62.6235C251.872 63.2734 250.624 63.5541 249.221 63.4654C247.818 63.3769 246.215 62.9188 244.413 62.0917L245.078 57.2617C246.673 57.971 247.966 58.1113 248.955 57.6827C249.945 57.2544 250.735 56.1687 251.326 54.426L251.902 52.6534L242.818 32.1371V31.2952H250.883L255.447 43.8354H255.624L259.656 31.2952H267.145V32.1371ZM272.905 53.4511C271.665 53.4511 270.624 53.0818 269.782 52.3433C268.94 51.6046 268.519 50.6298 268.519 49.4188C268.519 48.2076 268.94 47.2254 269.782 46.4719C270.624 45.7188 271.665 45.342 272.905 45.342C274.176 45.342 275.224 45.7188 276.052 46.4719C276.879 47.2254 277.292 48.2076 277.292 49.4188C277.292 50.6298 276.879 51.6046 276.052 52.3433C275.224 53.0818 274.176 53.4511 272.905 53.4511ZM303.126 39.626H295.992C295.46 38.0012 294.337 37.1888 292.624 37.1888C291.502 37.1593 290.512 37.5655 289.655 38.4074C288.798 39.2493 288.37 40.4086 288.37 41.8858C288.37 43.3331 288.776 44.478 289.589 45.3199C290.401 46.1618 291.354 46.5975 292.447 46.627C293.244 46.6568 293.968 46.4351 294.618 45.9626C295.268 45.4897 295.726 44.8103 295.992 43.9242H303.17C302.816 46.8487 301.567 49.1158 299.426 50.7259C297.284 52.336 294.825 53.126 292.048 53.0965C289.005 53.067 286.376 52.0701 284.16 50.1057C281.945 48.141 280.837 45.401 280.837 41.8858C280.837 40.0543 281.17 38.4074 281.834 36.945C282.499 35.4829 283.378 34.2937 284.471 33.3779C285.564 32.4623 286.782 31.7681 288.126 31.2952C289.471 30.8227 290.866 30.5863 292.314 30.5863C295.002 30.5863 297.38 31.3766 299.448 32.9569C301.516 34.5375 302.742 36.7604 303.126 39.626ZM325.126 33.5995C327.387 35.5787 328.516 38.3408 328.516 41.8858C328.516 45.4308 327.401 48.1855 325.171 50.1499C322.941 52.1143 320.289 53.1112 317.217 53.141C315.238 53.1705 313.399 52.779 311.7 51.9666C310.002 51.1542 308.591 49.8693 307.468 48.1115C306.346 46.3537 305.785 44.2785 305.785 41.8858C305.785 38.3408 306.9 35.5787 309.13 33.5995C311.361 31.6204 314.012 30.6305 317.084 30.6305C320.186 30.6305 322.867 31.6204 325.126 33.5995ZM314.47 38.4295C313.702 39.2566 313.318 40.4086 313.318 41.8858C313.318 43.3629 313.702 44.5149 314.47 45.342C315.238 46.1692 316.153 46.568 317.217 46.5386C318.251 46.5088 319.144 46.0878 319.898 45.2757C320.651 44.4633 321.028 43.3331 321.028 41.8858C321.028 40.4384 320.651 39.3082 319.898 38.4958C319.144 37.6837 318.251 37.2627 317.217 37.233C316.153 37.2035 315.238 37.6023 314.47 38.4295ZM367.732 52.6534H360.111V40.4234C360.14 39.2419 359.881 38.3334 359.335 37.6984C358.788 37.0632 358.116 36.7604 357.319 36.7899C356.521 36.8194 355.842 37.1519 355.281 37.7869C354.719 38.4221 354.424 39.3009 354.394 40.4234V52.6534H346.95V40.4234C346.979 39.2419 346.699 38.3334 346.108 37.6984C345.517 37.0632 344.793 36.7604 343.937 36.7899C343.08 36.8194 342.334 37.1666 341.699 37.8314C341.064 38.4958 340.746 39.4043 340.746 40.5563V52.6534H333.258V37.809C333.258 37.2775 333.251 36.9081 333.236 36.7012C333.221 36.4946 333.162 36.2581 333.058 35.9923C332.955 35.7264 332.77 35.5566 332.504 35.4829C332.239 35.4089 331.884 35.372 331.441 35.372V31.251C332.179 30.9851 333.036 30.808 334.011 30.7192C334.986 30.6305 335.975 30.6455 336.98 30.7635C337.984 30.8817 338.826 31.2363 339.505 31.827C340.185 32.4178 340.525 33.2154 340.525 34.2197C341.116 33.127 341.972 32.2848 343.095 31.6941C344.217 31.1033 345.414 30.808 346.684 30.808C350.081 30.808 352.341 32.0782 353.464 34.6186C354.143 33.4371 355.11 32.5065 356.366 31.827C357.622 31.1476 358.929 30.808 360.288 30.808C363.153 30.808 365.132 31.6572 366.225 33.3557C367.318 35.0546 367.82 37.4104 367.732 40.4234V52.6534Z" fill="#141B33"/>
<path fill-rule="evenodd" clip-rule="evenodd" d="M16.925 0.435608H67.507C76.4313 0.435608 83.7328 7.73711 83.7328 16.6614V67.2434C83.7328 76.1677 76.4313 83.4692 67.507 83.4692H16.925C8.00072 83.4692 0.699219 76.1677 0.699219 67.2434V16.6614C0.699219 7.73711 8.00072 0.435608 16.925 0.435608Z" fill="#141B33"/>
<path d="M43.7281 46.5488V66.8873C43.7281 69.2829 43.2709 70.5729 41.2948 71.5081L31.117 76.325C28.4411 77.7684 26.026 77.5887 26.0266 75.2651V74.4003C26.2278 62.7541 30.3695 53.3916 41.237 47.927L43.7281 46.5488Z" fill="url(#paint0_linear)"/>
<path d="M26.0265 74.4003V47.1951C25.9582 39.2045 31.1557 32.9013 41.2369 28.1638L58.7675 19.2908C61.9105 17.7834 63.4682 18.7119 63.1703 22.4911V30.5732C63.2062 34.6376 63.2062 35.9327 57.1889 39.1021L41.2369 47.927C30.3694 53.3916 26.2277 62.7542 26.0265 74.4003Z" fill="url(#paint1_linear)"/>
<path fill-rule="evenodd" clip-rule="evenodd" d="M34.8794 6.65881C39.7694 6.65881 43.7334 10.6227 43.7334 15.5125C43.7334 20.4023 39.7694 24.3662 34.8794 24.3662C29.9896 24.3662 26.0256 20.4023 26.0256 15.5125C26.0256 10.6227 29.9896 6.65881 34.8794 6.65881Z" fill="white"/>
<defs>
<linearGradient id="paint0_linear" x1="-238.67" y1="-254.707" x2="-233.339" y2="-284.938" gradientUnits="userSpaceOnUse">
<stop stop-color="#10ABFE"/>
<stop offset="1" stop-color="white"/>
</linearGradient>
<linearGradient id="paint1_linear" x1="-101.507" y1="89.7029" x2="-142.315" y2="127.757" gradientUnits="userSpaceOnUse">
<stop stop-color="#1FB1FF"/>
<stop offset="1" stop-color="#5070FC"/>
</linearGradient>
</defs>
</svg>
